<?xml version="1.0" encoding="UTF-8" standalone="no"?>
<svg
   width="500"
   zoomAndPan="magnify"
   viewBox="0 0 375 89.999998"
   height="120"
   preserveAspectRatio="xMidYMid"
   version="1.0"
   id="svg87"
   sodipodi:docname="fullbpCOLOR-cropped.svg"
   inkscape:version="1.4 (86a8ad7, 2024-10-11)"
   inkscape:export-filename="fullbpCOLOR-cropped.png"
   inkscape:export-xdpi="96"
   inkscape:export-ydpi="96"
   xmlns:inkscape="http://www.inkscape.org/namespaces/inkscape"
   xmlns:sodipodi="http://sodipodi.sourceforge.net/DTD/sodipodi-0.dtd"
   xmlns="http://www.w3.org/2000/svg"
   xmlns:svg="http://www.w3.org/2000/svg">
  <sodipodi:namedview
     id="namedview87"
     pagecolor="#ffffff"
     bordercolor="#000000"
     borderopacity="0.25"
     inkscape:showpageshadow="2"
     inkscape:pageopacity="0.0"
     inkscape:pagecheckerboard="true"
     inkscape:deskcolor="#d1d1d1"
     inkscape:zoom="2.372"
     inkscape:cx="250.21079"
     inkscape:cy="250.42159"
     inkscape:window-width="2560"
     inkscape:window-height="1494"
     inkscape:window-x="-11"
     inkscape:window-y="-11"
     inkscape:window-maximized="1"
     inkscape:current-layer="svg87" />
  <defs
     id="defs22">
    <g
       id="g1" />
    <clipPath
       id="c181b26429">
      <path
         d="m 29.042969,180.99219 h 27.164062 v 15.91015 H 29.042969 Z m 0,0"
         clip-rule="nonzero"
         id="path1" />
    </clipPath>
    <clipPath
       id="f61c21d908">
      <path
         d="m 56.207031,183.24219 v 11.41015 c 0,0.59766 -0.238281,1.17188 -0.660156,1.59375 -0.421875,0.42188 -0.996094,0.65625 -1.589844,0.65625 H 31.355469 c -0.597657,0 -1.171875,-0.23437 -1.59375,-0.65625 -0.421875,-0.42187 -0.65625,-0.99609 -0.65625,-1.59375 v -11.41015 c 0,-0.59766 0.234375,-1.16797 0.65625,-1.58985 0.421875,-0.42187 0.996093,-0.66015 1.59375,-0.66015 h 22.601562 c 0.59375,0 1.167969,0.23828 1.589844,0.66015 0.421875,0.42188 0.660156,0.99219 0.660156,1.58985 z m 0,0"
         clip-rule="nonzero"
         id="path2" />
    </clipPath>
    <clipPath
       id="189c2faedf">
      <path
         d="M 0.0429688,0.992188 H 27.207031 V 16.902344 H 0.0429688 Z m 0,0"
         clip-rule="nonzero"
         id="path3" />
    </clipPath>
    <clipPath
       id="affe2d098d">
      <path
         d="m 27.207031,3.242188 v 11.410156 c 0,0.597656 -0.238281,1.171875 -0.660156,1.59375 -0.421875,0.421875 -0.996094,0.65625 -1.589844,0.65625 H 2.355469 c -0.597657,0 -1.171875,-0.234375 -1.59375,-0.65625 C 0.339844,15.824219 0.105469,15.25 0.105469,14.652344 V 3.242188 c 0,-0.597657 0.234375,-1.167969 0.65625,-1.589844 0.421875,-0.421875 0.996093,-0.660156 1.59375,-0.660156 h 22.601562 c 0.59375,0 1.167969,0.238281 1.589844,0.660156 0.421875,0.421875 0.660156,0.992187 0.660156,1.589844 z m 0,0"
         clip-rule="nonzero"
         id="path4" />
    </clipPath>
    <clipPath
       id="84f2b159ba">
      <rect
         x="0"
         width="28"
         y="0"
         height="17"
         id="rect4" />
    </clipPath>
    <clipPath
       id="0c047796c3">
      <path
         d="m 60.421875,180.99219 h 21.941406 v 15.91406 H 60.421875 Z m 0,0"
         clip-rule="nonzero"
         id="path5" />
    </clipPath>
    <clipPath
       id="0016363583">
      <path
         d="m 82.363281,183.24219 v 11.41406 c 0,0.59766 -0.234375,1.16797 -0.65625,1.58984 -0.421875,0.42188 -0.996093,0.66016 -1.59375,0.66016 H 62.730469 c -0.597657,0 -1.167969,-0.23828 -1.589844,-0.66016 -0.421875,-0.42187 -0.660156,-0.99218 -0.660156,-1.58984 v -11.41406 c 0,-0.59375 0.238281,-1.16797 0.660156,-1.58985 0.421875,-0.42187 0.992187,-0.66015 1.589844,-0.66015 h 17.382812 c 0.597657,0 1.171875,0.23828 1.59375,0.66015 0.421875,0.42188 0.65625,0.9961 0.65625,1.58985 z m 0,0"
         clip-rule="nonzero"
         id="path6" />
    </clipPath>
    <clipPath
       id="20b54f2a85">
      <path
         d="M 0.480469,0.992188 H 22.363281 V 16.90625 H 0.480469 Z m 0,0"
         clip-rule="nonzero"
         id="path7" />
    </clipPath>
    <clipPath
       id="7e0a5a7b69">
      <path
         d="M 22.363281,3.242188 V 14.65625 c 0,0.597656 -0.234375,1.167969 -0.65625,1.589844 -0.421875,0.421875 -0.996093,0.660156 -1.59375,0.660156 H 2.730469 C 2.132812,16.90625 1.5625,16.667969 1.140625,16.246094 0.71875,15.824219 0.480469,15.253906 0.480469,14.65625 V 3.242188 c 0,-0.59375 0.238281,-1.167969 0.660156,-1.589844 C 1.5625,1.230469 2.132812,0.992188 2.730469,0.992188 h 17.382812 c 0.597657,0 1.171875,0.238281 1.59375,0.660156 0.421875,0.421875 0.65625,0.996094 0.65625,1.589844 z m 0,0"
         clip-rule="nonzero"
         id="path8" />
    </clipPath>
    <clipPath
       id="b08a912032">
      <rect
         x="0"
         width="23"
         y="0"
         height="17"
         id="rect8" />
    </clipPath>
    <clipPath
       id="16bb94f9b0">
      <path
         d="M 11.703125,200.82422 H 42.65625 v 15.91015 H 11.703125 Z m 0,0"
         clip-rule="nonzero"
         id="path9" />
    </clipPath>
    <clipPath
       id="da8bc6eb06">
      <path
         d="m 42.65625,203.07422 v 11.41015 c 0,0.59766 -0.234375,1.17188 -0.65625,1.59375 -0.421875,0.42188 -0.996094,0.65625 -1.59375,0.65625 H 13.953125 c -0.597656,0 -1.167969,-0.23437 -1.589844,-0.65625 -0.421875,-0.42187 -0.660156,-0.99609 -0.660156,-1.59375 v -11.41015 c 0,-0.59766 0.238281,-1.17188 0.660156,-1.59375 0.421875,-0.42188 0.992188,-0.65625 1.589844,-0.65625 H 40.40625 c 0.597656,0 1.171875,0.23437 1.59375,0.65625 0.421875,0.42187 0.65625,0.99609 0.65625,1.59375 z m 0,0"
         clip-rule="nonzero"
         id="path10" />
    </clipPath>
    <clipPath
       id="a0dba7106e">
      <path
         d="M 0.703125,0.824219 H 31.65625 V 16.734375 H 0.703125 Z m 0,0"
         clip-rule="nonzero"
         id="path11" />
    </clipPath>
    <clipPath
       id="0e3a42e278">
      <path
         d="m 31.65625,3.074219 v 11.410156 c 0,0.597656 -0.234375,1.171875 -0.65625,1.59375 -0.421875,0.421875 -0.996094,0.65625 -1.59375,0.65625 H 2.953125 C 2.355469,16.734375 1.785156,16.5 1.363281,16.078125 0.941406,15.65625 0.703125,15.082031 0.703125,14.484375 V 3.074219 c 0,-0.597657 0.238281,-1.171875 0.660156,-1.59375 0.421875,-0.421875 0.992188,-0.65625 1.589844,-0.65625 H 29.40625 c 0.597656,0 1.171875,0.234375 1.59375,0.65625 0.421875,0.421875 0.65625,0.996093 0.65625,1.59375 z m 0,0"
         clip-rule="nonzero"
         id="path12" />
    </clipPath>
    <clipPath
       id="b98b135749">
      <rect
         x="0"
         width="32"
         y="0"
         height="17"
         id="rect12" />
    </clipPath>
    <clipPath
       id="547cf52149">
      <path
         d="m 47.214844,200.82422 h 35.40625 v 15.89844 h -35.40625 z m 0,0"
         clip-rule="nonzero"
         id="path13" />
    </clipPath>
    <clipPath
       id="1ba523fc68">
      <path
         d="M 80.375,216.72266 H 49.519531 c -0.59375,0 -1.167969,-0.23438 -1.589843,-0.65625 -0.421876,-0.42188 -0.65625,-0.9961 -0.65625,-1.58985 v -11.40625 c 0,-0.59765 0.234374,-1.16797 0.65625,-1.58984 0.421874,-0.42188 0.996093,-0.65625 1.589843,-0.65625 H 80.375 c 0.59375,0 1.167969,0.23437 1.589844,0.65625 0.421875,0.42187 0.65625,0.99219 0.65625,1.58984 v 11.40625 c 0,0.59375 -0.234375,1.16797 -0.65625,1.58985 -0.421875,0.42187 -0.996094,0.65625 -1.589844,0.65625 z m 0,0"
         clip-rule="nonzero"
         id="path14" />
    </clipPath>
    <clipPath
       id="cd6c4c83ad">
      <path
         d="m 0.214844,0.824219 h 35.40625 V 16.722656 H 0.214844 Z m 0,0"
         clip-rule="nonzero"
         id="path15" />
    </clipPath>
    <clipPath
       id="0c249f5199">
      <path
         d="M 33.375,16.722656 H 2.519531 c -0.59375,0 -1.167969,-0.234375 -1.589843,-0.65625 -0.421876,-0.421875 -0.65625,-0.996094 -0.65625,-1.589844 V 3.070312 c 0,-0.597656 0.234374,-1.167968 0.65625,-1.589843 0.421874,-0.421875 0.996093,-0.65625 1.589843,-0.65625 H 33.375 c 0.59375,0 1.167969,0.234375 1.589844,0.65625 0.421875,0.421875 0.65625,0.992187 0.65625,1.589843 v 11.40625 c 0,0.59375 -0.234375,1.167969 -0.65625,1.589844 -0.421875,0.421875 -0.996094,0.65625 -1.589844,0.65625 z m 0,0"
         clip-rule="nonzero"
         id="path16" />
    </clipPath>
    <clipPath
       id="86e061be1a">
      <rect
         x="0"
         width="36"
         y="0"
         height="17"
         id="rect16" />
    </clipPath>
    <clipPath
       id="86863d9c82">
      <path
         d="m 45,148 h 37 v 28 H 45 Z m 0,0"
         clip-rule="nonzero"
         id="path17" />
    </clipPath>
    <clipPath
       id="6368473981">
      <path
         d="m 75.566406,147.65625 6.382813,15.24609 -30.84375,12.92188 -6.386719,-15.2461 z m 0,0"
         clip-rule="nonzero"
         id="path18" />
    </clipPath>
    <clipPath
       id="22a74849b1">
      <path
         d="m 76.433594,149.73437 4.648437,11.09375 c 0.230469,0.55079 0.230469,1.16797 0.0078,1.72266 -0.226563,0.55078 -0.664063,0.99219 -1.214844,1.22266 l -26.675781,11.17187 c -0.550781,0.23047 -1.167969,0.23438 -1.722657,0.008 -0.550781,-0.22656 -0.992187,-0.66406 -1.222656,-1.21484 l -4.644531,-11.09375 c -0.230469,-0.55078 -0.234375,-1.16797 -0.0078,-1.71875 0.226563,-0.55469 0.664063,-0.99219 1.210938,-1.22266 l 26.675781,-11.17578 c 0.550781,-0.23047 1.171875,-0.23437 1.722657,-0.008 0.554687,0.22656 0.992187,0.66406 1.222656,1.21484 z m 0,0"
         clip-rule="nonzero"
         id="path19" />
    </clipPath>
    <clipPath
       id="afe1b4363b">
      <path
         d="m 0.359375,0.078125 h 36 v 27.121094 h -36 z m 0,0"
         clip-rule="nonzero"
         id="path20" />
    </clipPath>
    <clipPath
       id="e1bc3a141a">
      <path
         d="M 30.566406,-0.34375 36.949219,14.902344 6.105469,27.824219 -0.28125,12.578125 Z m 0,0"
         clip-rule="nonzero"
         id="path21" />
    </clipPath>
    <clipPath
       id="684060c07a">
      <path
         d="m 31.433594,1.734375 4.648437,11.09375 c 0.230469,0.550781 0.230469,1.167969 0.0078,1.722656 -0.226563,0.550781 -0.664063,0.992188 -1.214844,1.222657 L 8.199219,26.945312 C 7.648438,27.175781 7.03125,27.179688 6.476562,26.953125 5.925781,26.726562 5.484375,26.289062 5.253906,25.738281 L 0.609375,14.644531 C 0.378906,14.09375 0.375,13.476562 0.601562,12.925781 0.828125,12.371094 1.265625,11.933594 1.8125,11.703125 L 28.488281,0.527344 c 0.550781,-0.230469 1.171875,-0.234375 1.722657,-0.007813 0.554687,0.226563 0.992187,0.664063 1.222656,1.214844 z m 0,0"
         clip-rule="nonzero"
         id="path22" />
    </clipPath>
    <clipPath
       id="34c5f2711f">
      <rect
         x="0"
         width="37"
         y="0"
         height="28"
         id="rect22" />
    </clipPath>
  </defs>
  <g
     fill="#ffffff"
     fill-opacity="1"
     id="g25"
     transform="translate(-4.1104553,-144.49831)">
    <g
       transform="translate(87.246224,214.84862)"
       id="g24">
      <g
         id="g23">
        <path
           d="m 15.65625,0.578125 c -2.605469,0 -4.867188,-0.5429688 -6.78125,-1.625 -1.917969,-1.082031 -3.402344,-2.613281 -4.453125,-4.59375 -1.042969,-1.976563 -1.5625,-4.300781 -1.5625,-6.96875 v -22.125 H 9.375 v 13.46875 h 0.046875 c 0.507813,-0.726563 1.132813,-1.363281 1.875,-1.90625 0.75,-0.539063 1.585937,-0.953125 2.515625,-1.234375 0.9375,-0.28125 1.914062,-0.421875 2.9375,-0.421875 2.375,0 4.429688,0.523437 6.171875,1.5625 1.75,1.042969 3.109375,2.480469 4.078125,4.3125 0.96875,1.824219 1.453125,3.9375 1.453125,6.34375 0,1.90625 -0.289063,3.664063 -0.859375,5.265625 -0.574219,1.59375 -1.402344,2.992188 -2.484375,4.1875 -1.074219,1.1875 -2.402344,2.109375 -3.984375,2.765625 -1.585938,0.644531 -3.40625,0.96875 -5.46875,0.96875 z m 0,-5.578125 c 1.300781,0 2.410156,-0.316406 3.328125,-0.953125 0.914063,-0.632813 1.617187,-1.488281 2.109375,-2.5625 0.5,-1.082031 0.75,-2.285156 0.75,-3.609375 0,-1.332031 -0.25,-2.535156 -0.75,-3.609375 -0.492188,-1.082031 -1.195312,-1.941406 -2.109375,-2.578125 -0.917969,-0.632812 -2.027344,-0.953125 -3.328125,-0.953125 -1.273438,0 -2.375,0.320313 -3.3125,0.953125 -0.9375,0.636719 -1.652344,1.496094 -2.140625,2.578125 -0.492187,1.074219 -0.734375,2.277344 -0.734375,3.609375 0,1.324219 0.242188,2.527344 0.734375,3.609375 0.488281,1.074219 1.203125,1.929687 2.140625,2.5625 C 13.28125,-5.316406 14.382812,-5 15.65625,-5 Z m 0,0"
           id="path23" />
      </g>
    </g>
  </g>
  <g
     fill="#ffffff"
     fill-opacity="1"
     id="g28"
     transform="translate(-4.1104553,-144.49831)">
    <g
       transform="translate(117.36316,214.84862)"
       id="g27">
      <g
         id="g26">
        <path
           d="m 14.9375,0.578125 c -2.46875,0 -4.59375,-0.4921875 -6.375,-1.46875 C 6.789062,-1.878906 5.4375,-3.195312 4.5,-4.84375 3.5625,-6.5 3.09375,-8.328125 3.09375,-10.328125 v -13.9375 h 6.515625 v 13.9375 c 0,0.992187 0.234375,1.890625 0.703125,2.703125 0.476562,0.804688 1.125,1.445312 1.9375,1.921875 C 13.0625,-5.234375 13.957031,-5 14.9375,-5 c 0.988281,0 1.882812,-0.234375 2.6875,-0.703125 0.8125,-0.476563 1.453125,-1.117187 1.921875,-1.921875 0.476563,-0.8125 0.71875,-1.710938 0.71875,-2.703125 v -13.9375 h 6.515625 v 13.9375 c 0,2 -0.46875,3.828125 -1.40625,5.484375 -0.929688,1.648438 -2.273438,2.964844 -4.03125,3.953125 -1.761719,0.9765625 -3.898438,1.46875 -6.40625,1.46875 z m 0,0"
           id="path25" />
      </g>
    </g>
  </g>
  <g
     fill="#ffffff"
     fill-opacity="1"
     id="g31"
     transform="translate(-4.1104553,-144.49831)">
    <g
       transform="translate(147.2422,214.84862)"
       id="g30">
      <g
         id="g29">
        <path
           d="m 3.09375,0 v -24.265625 h 6.5625 V 0 Z M 6.375,-27.15625 c -1.117188,0 -2.078125,-0.40625 -2.890625,-1.21875 -0.804687,-0.8125 -1.203125,-1.769531 -1.203125,-2.875 0,-1.113281 0.398438,-2.070312 1.203125,-2.875 0.8125,-0.8125 1.773437,-1.21875 2.890625,-1.21875 1.101562,0 2.0625,0.40625 2.875,1.21875 0.8125,0.804688 1.21875,1.761719 1.21875,2.875 0,1.105469 -0.40625,2.0625 -1.21875,2.875 -0.8125,0.8125 -1.773438,1.21875 -2.875,1.21875 z m 0,0"
           id="path28" />
      </g>
    </g>
  </g>
  <g
     fill="#ffffff"
     fill-opacity="1"
     id="g34"
     transform="translate(-4.1104553,-144.49831)">
    <g
       transform="translate(159.94556,214.84862)"
       id="g33">
      <g
         id="g32">
        <path
           d="M 3.09375,0 V -34.734375 H 9.609375 V 0 Z m 0,0"
           id="path31" />
      </g>
    </g>
  </g>
  <g
     fill="#ffffff"
     fill-opacity="1"
     id="g37"
     transform="translate(-4.1104553,-144.49831)">
    <g
       transform="translate(172.64891,214.84862)"
       id="g36">
      <g
         id="g35">
        <path
           d="m 14.46875,0.578125 c -2.03125,0 -3.851562,-0.324219 -5.453125,-0.96875 C 7.410156,-1.046875 6.066406,-1.96875 4.984375,-3.15625 3.910156,-4.351562 3.085938,-5.75 2.515625,-7.34375 c -0.5625,-1.601562 -0.84375,-3.359375 -0.84375,-5.265625 0,-2.40625 0.476563,-4.519531 1.4375,-6.34375 0.96875,-1.832031 2.332031,-3.269531 4.09375,-4.3125 1.757813,-1.039063 3.816406,-1.5625 6.171875,-1.5625 1.007812,0 1.984375,0.140625 2.921875,0.421875 0.9375,0.28125 1.785156,0.695312 2.546875,1.234375 0.757812,0.542969 1.378906,1.179687 1.859375,1.90625 H 20.75 v -13.46875 h 6.515625 v 22.125 c 0,2.667969 -0.527344,4.992187 -1.578125,6.96875 -1.042969,1.980469 -2.515625,3.511719 -4.421875,4.59375 -1.90625,1.0820312 -4.171875,1.625 -6.796875,1.625 z m 0,-5.578125 c 1.300781,0 2.410156,-0.316406 3.328125,-0.953125 0.914063,-0.632813 1.617187,-1.488281 2.109375,-2.5625 0.5,-1.082031 0.75,-2.285156 0.75,-3.609375 0,-1.332031 -0.25,-2.535156 -0.75,-3.609375 -0.492188,-1.082031 -1.195312,-1.941406 -2.109375,-2.578125 -0.917969,-0.632812 -2.027344,-0.953125 -3.328125,-0.953125 -1.273438,0 -2.375,0.320313 -3.3125,0.953125 -0.9375,0.636719 -1.652344,1.496094 -2.140625,2.578125 -0.492187,1.074219 -0.734375,2.277344 -0.734375,3.609375 0,1.324219 0.242188,2.527344 0.734375,3.609375 0.488281,1.074219 1.203125,1.929687 2.140625,2.5625 C 12.09375,-5.316406 13.195312,-5 14.46875,-5 Z m 0,0"
           id="path34" />
      </g>
    </g>
  </g>
  <g
     fill="#fabb18"
     fill-opacity="1"
     id="g40"
     transform="translate(-4.1104553,-144.49831)">
    <g
       transform="translate(202.76965,214.84862)"
       id="g39">
      <g
         id="g38">
        <path
           d="m 15.65625,-24.828125 c 2.0625,0 3.882812,0.324219 5.46875,0.96875 1.582031,0.648437 2.910156,1.570313 3.984375,2.765625 1.082031,1.1875 1.910156,2.585938 2.484375,4.1875 0.570312,1.59375 0.859375,3.34375 0.859375,5.25 0,2.375 -0.484375,4.484375 -1.453125,6.328125 -0.96875,1.84375 -2.328125,3.292969 -4.078125,4.34375 -1.742187,1.0390625 -3.796875,1.5625 -6.171875,1.5625 -1.023438,0 -2,-0.148437 -2.9375,-0.4375 C 12.882812,-0.140625 12.046875,-0.550781 11.296875,-1.09375 10.554688,-1.632812 9.929688,-2.269531 9.421875,-3 H 9.375 V 10.46875 H 2.859375 v -22.125 c 0,-2.695312 0.519531,-5.023438 1.5625,-6.984375 1.050781,-1.96875 2.535156,-3.488281 4.453125,-4.5625 1.914062,-1.082031 4.175781,-1.625 6.78125,-1.625 z m 0,5.5625 c -1.273438,0 -2.375,0.320313 -3.3125,0.953125 -0.9375,0.636719 -1.652344,1.496094 -2.140625,2.578125 -0.492187,1.074219 -0.734375,2.277344 -0.734375,3.609375 0,1.324219 0.242188,2.527344 0.734375,3.609375 0.488281,1.074219 1.203125,1.929687 2.140625,2.5625 C 13.28125,-5.316406 14.382812,-5 15.65625,-5 c 1.300781,0 2.410156,-0.316406 3.328125,-0.953125 0.914063,-0.632813 1.617187,-1.488281 2.109375,-2.5625 0.5,-1.082031 0.75,-2.285156 0.75,-3.609375 0,-1.332031 -0.25,-2.535156 -0.75,-3.609375 -0.492188,-1.082031 -1.195312,-1.941406 -2.109375,-2.578125 -0.917969,-0.632812 -2.027344,-0.953125 -3.328125,-0.953125 z m 0,0"
           id="path37" />
      </g>
    </g>
  </g>
  <g
     fill="#fabb18"
     fill-opacity="1"
     id="g43"
     transform="translate(-4.1104553,-144.49831)">
    <g
       transform="translate(232.88659,214.84862)"
       id="g42">
      <g
         id="g41">
        <path
           d="m 14.9375,0.578125 c -2.46875,0 -4.59375,-0.4921875 -6.375,-1.46875 C 6.789062,-1.878906 5.4375,-3.195312 4.5,-4.84375 3.5625,-6.5 3.09375,-8.328125 3.09375,-10.328125 v -13.9375 h 6.515625 v 13.9375 c 0,0.992187 0.234375,1.890625 0.703125,2.703125 0.476562,0.804688 1.125,1.445312 1.9375,1.921875 C 13.0625,-5.234375 13.957031,-5 14.9375,-5 c 0.988281,0 1.882812,-0.234375 2.6875,-0.703125 0.8125,-0.476563 1.453125,-1.117187 1.921875,-1.921875 0.476563,-0.8125 0.71875,-1.710938 0.71875,-2.703125 v -13.9375 h 6.515625 v 13.9375 c 0,2 -0.46875,3.828125 -1.40625,5.484375 -0.929688,1.648438 -2.273438,2.964844 -4.03125,3.953125 -1.761719,0.9765625 -3.898438,1.46875 -6.40625,1.46875 z m 0,0"
           id="path40" />
      </g>
    </g>
  </g>
  <g
     fill="#fabb18"
     fill-opacity="1"
     id="g46"
     transform="translate(-4.1104553,-144.49831)">
    <g
       transform="translate(262.76563,214.84862)"
       id="g45">
      <g
         id="g44">
        <path
           d="m 2.859375,0 v -17.359375 c 0,-2.15625 0.609375,-3.84375 1.828125,-5.0625 1.21875,-1.226563 2.90625,-1.84375 5.0625,-1.84375 h 6.71875 v 5.5625 h -5.578125 c -0.40625,0 -0.761719,0.148437 -1.0625,0.4375 -0.304687,0.28125 -0.453125,0.648437 -0.453125,1.09375 V 0 Z m 0,0"
           id="path43" />
      </g>
    </g>
  </g>
  <g
     fill="#fabb18"
     fill-opacity="1"
     id="g49"
     transform="translate(-4.1104553,-144.49831)">
    <g
       transform="translate(279.70344,214.84862)"
       id="g48">
      <g
         id="g47">
        <path
           d="m 14.46875,0.578125 c -2.03125,0 -3.851562,-0.324219 -5.453125,-0.96875 C 7.410156,-1.046875 6.066406,-1.96875 4.984375,-3.15625 3.910156,-4.351562 3.085938,-5.75 2.515625,-7.34375 c -0.5625,-1.601562 -0.84375,-3.359375 -0.84375,-5.265625 0,-2.40625 0.476563,-4.519531 1.4375,-6.34375 0.96875,-1.832031 2.332031,-3.269531 4.09375,-4.3125 1.757813,-1.039063 3.816406,-1.5625 6.171875,-1.5625 1.007812,0 1.984375,0.140625 2.921875,0.421875 0.9375,0.28125 1.785156,0.695312 2.546875,1.234375 0.757812,0.542969 1.378906,1.179687 1.859375,1.90625 H 20.75 v -13.46875 h 6.515625 v 22.125 c 0,2.667969 -0.527344,4.992187 -1.578125,6.96875 -1.042969,1.980469 -2.515625,3.511719 -4.421875,4.59375 -1.90625,1.0820312 -4.171875,1.625 -6.796875,1.625 z m 0,-5.578125 c 1.300781,0 2.410156,-0.316406 3.328125,-0.953125 0.914063,-0.632813 1.617187,-1.488281 2.109375,-2.5625 0.5,-1.082031 0.75,-2.285156 0.75,-3.609375 0,-1.332031 -0.25,-2.535156 -0.75,-3.609375 -0.492188,-1.082031 -1.195312,-1.941406 -2.109375,-2.578125 -0.917969,-0.632812 -2.027344,-0.953125 -3.328125,-0.953125 -1.273438,0 -2.375,0.320313 -3.3125,0.953125 -0.9375,0.636719 -1.652344,1.496094 -2.140625,2.578125 -0.492187,1.074219 -0.734375,2.277344 -0.734375,3.609375 0,1.324219 0.242188,2.527344 0.734375,3.609375 0.488281,1.074219 1.203125,1.929687 2.140625,2.5625 C 12.09375,-5.316406 13.195312,-5 14.46875,-5 Z m 0,0"
           id="path46" />
      </g>
    </g>
  </g>
  <g
     fill="#fabb18"
     fill-opacity="1"
     id="g52"
     transform="translate(-4.1104553,-144.49831)">
    <g
       transform="translate(309.82037,214.84862)"
       id="g51">
      <g
         id="g50">
        <path
           d="m 14.9375,0.578125 c -2.46875,0 -4.59375,-0.4921875 -6.375,-1.46875 C 6.789062,-1.878906 5.4375,-3.195312 4.5,-4.84375 3.5625,-6.5 3.09375,-8.328125 3.09375,-10.328125 v -13.9375 h 6.515625 v 13.9375 c 0,0.992187 0.234375,1.890625 0.703125,2.703125 0.476562,0.804688 1.125,1.445312 1.9375,1.921875 C 13.0625,-5.234375 13.957031,-5 14.9375,-5 c 0.988281,0 1.882812,-0.234375 2.6875,-0.703125 0.8125,-0.476563 1.453125,-1.117187 1.921875,-1.921875 0.476563,-0.8125 0.71875,-1.710938 0.71875,-2.703125 v -13.9375 h 6.515625 v 13.9375 c 0,2 -0.46875,3.828125 -1.40625,5.484375 -0.929688,1.648438 -2.273438,2.964844 -4.03125,3.953125 -1.761719,0.9765625 -3.898438,1.46875 -6.40625,1.46875 z m 0,0"
           id="path49" />
      </g>
    </g>
  </g>
  <g
     fill="#fabb18"
     fill-opacity="1"
     id="g55"
     transform="translate(-4.1104553,-144.49831)">
    <g
       transform="translate(339.69942,214.84862)"
       id="g54">
      <g
         id="g53">
        <path
           d="m 15.3125,0 c -2.75,0 -5.152344,-0.53125 -7.203125,-1.59375 -2.042969,-1.0625 -3.625,-2.507812 -4.75,-4.34375 -1.125,-1.84375 -1.6875,-3.90625 -1.6875,-6.1875 0,-2.570312 0.519531,-4.8125 1.5625,-6.71875 1.050781,-1.90625 2.476563,-3.378906 4.28125,-4.421875 1.8125,-1.039063 3.859375,-1.5625 6.140625,-1.5625 2.726562,0 4.941406,0.574219 6.640625,1.71875 1.695313,1.136719 2.941406,2.664063 3.734375,4.578125 0.789062,1.917969 1.1875,4.054688 1.1875,6.40625 0,0.3125 -0.01563,0.683594 -0.04687,1.109375 -0.03125,0.429687 -0.07813,0.757813 -0.140625,0.984375 H 8.609375 c 0.257813,0.980469 0.695313,1.804688 1.3125,2.46875 0.613281,0.667969 1.390625,1.167969 2.328125,1.5 0.9375,0.335938 1.992188,0.5 3.171875,0.5 h 6.75 V 0 Z m -6.75,-14.421875 h 10.140625 c -0.0625,-0.59375 -0.179687,-1.148437 -0.34375,-1.671875 -0.15625,-0.53125 -0.382813,-1 -0.671875,-1.40625 -0.28125,-0.414062 -0.617188,-0.765625 -1,-1.046875 -0.375,-0.289063 -0.820312,-0.515625 -1.328125,-0.671875 -0.5,-0.15625 -1.054687,-0.234375 -1.65625,-0.234375 -0.792969,0 -1.5,0.140625 -2.125,0.421875 -0.617187,0.28125 -1.132813,0.664062 -1.546875,1.140625 -0.40625,0.480469 -0.730469,1.023437 -0.96875,1.625 -0.242188,0.59375 -0.40625,1.210937 -0.5,1.84375 z m 0,0"
           id="path52" />
      </g>
    </g>
  </g>
  <g
     clip-path="url(#c181b26429)"
     id="g61"
     transform="translate(-4.1104553,-144.49831)">
    <g
       clip-path="url(#f61c21d908)"
       id="g60">
      <g
         transform="translate(29,180)"
         id="g59">
        <g
           clip-path="url(#84f2b159ba)"
           id="g58">
          <g
             clip-path="url(#189c2faedf)"
             id="g57">
            <g
               clip-path="url(#affe2d098d)"
               id="g56">
              <path
                 fill="#fabb18"
                 d="M 27.207031,0.992188 V 16.902344 H 0.105469 V 0.992188 Z m 0,0"
                 fill-opacity="1"
                 fill-rule="nonzero"
                 id="path55" />
            </g>
          </g>
        </g>
      </g>
    </g>
  </g>
  <g
     clip-path="url(#0c047796c3)"
     id="g67"
     transform="translate(-4.1104553,-144.49831)">
    <g
       clip-path="url(#0016363583)"
       id="g66">
      <g
         transform="translate(60,180)"
         id="g65">
        <g
           clip-path="url(#b08a912032)"
           id="g64">
          <g
             clip-path="url(#20b54f2a85)"
             id="g63">
            <g
               clip-path="url(#7e0a5a7b69)"
               id="g62">
              <path
                 fill="#ffffff"
                 d="M 22.363281,0.992188 V 16.90625 H 0.484375 V 0.992188 Z m 0,0"
                 fill-opacity="1"
                 fill-rule="nonzero"
                 id="path61" />
            </g>
          </g>
        </g>
      </g>
    </g>
  </g>
  <g
     clip-path="url(#16bb94f9b0)"
     id="g73"
     transform="translate(-4.1104553,-144.49831)">
    <g
       clip-path="url(#da8bc6eb06)"
       id="g72">
      <g
         transform="translate(11,200)"
         id="g71">
        <g
           clip-path="url(#b98b135749)"
           id="g70">
          <g
             clip-path="url(#a0dba7106e)"
             id="g69">
            <g
               clip-path="url(#0e3a42e278)"
               id="g68">
              <path
                 fill="#fabb18"
                 d="M 31.65625,0.824219 V 16.734375 H 0.703125 V 0.824219 Z m 0,0"
                 fill-opacity="1"
                 fill-rule="nonzero"
                 id="path67" />
            </g>
          </g>
        </g>
      </g>
    </g>
  </g>
  <g
     clip-path="url(#547cf52149)"
     id="g79"
     transform="translate(-4.1104553,-144.49831)">
    <g
       clip-path="url(#1ba523fc68)"
       id="g78">
      <g
         transform="translate(47,200)"
         id="g77">
        <g
           clip-path="url(#86e061be1a)"
           id="g76">
          <g
             clip-path="url(#cd6c4c83ad)"
             id="g75">
            <g
               clip-path="url(#0c249f5199)"
               id="g74">
              <path
                 fill="#ffffff"
                 d="M 35.621094,0.824219 V 16.722656 H 0.277344 V 0.824219 Z m 0,0"
                 fill-opacity="1"
                 fill-rule="nonzero"
                 id="path73" />
            </g>
          </g>
        </g>
      </g>
    </g>
  </g>
  <g
     clip-path="url(#86863d9c82)"
     id="g87"
     transform="translate(-4.1104553,-144.49831)">
    <g
       clip-path="url(#6368473981)"
       id="g86">
      <g
         clip-path="url(#22a74849b1)"
         id="g85">
        <g
           transform="translate(45,148)"
           id="g84">
          <g
             clip-path="url(#34c5f2711f)"
             id="g83">
            <g
               clip-path="url(#afe1b4363b)"
               id="g82">
              <g
                 clip-path="url(#e1bc3a141a)"
                 id="g81">
                <g
                   clip-path="url(#684060c07a)"
                   id="g80">
                  <path
                     fill="#fabb18"
                     d="M 30.566406,-0.34375 36.949219,14.902344 6.105469,27.824219 -0.28125,12.578125 Z m 0,0"
                     fill-opacity="1"
                     fill-rule="nonzero"
                     id="path79" />
                </g>
              </g>
            </g>
          </g>
        </g>
      </g>
    </g>
  </g>
</svg>
